<?xml version="1.0" encoding="UTF-8" standalone="no"?>
<svg
   fill="#000000"
   height="800px"
   width="800px"
   version="1.1"
   viewBox="0 0 32.811 32.811"
   xml:space="preserve"
   id="svg8"
   sodipodi:docname="logo.svg"
   inkscape:version="1.2.1 (9c6d41e410, 2022-07-14)"
   xmlns:inkscape="http://www.inkscape.org/namespaces/inkscape"
   xmlns:sodipodi="http://sodipodi.sourceforge.net/DTD/sodipodi-0.dtd"
   xmlns="http://www.w3.org/2000/svg"
   xmlns:svg="http://www.w3.org/2000/svg"><defs
   id="defs12" /><sodipodi:namedview
   id="namedview10"
   pagecolor="#ffffff"
   bordercolor="#000000"
   borderopacity="0.25"
   inkscape:showpageshadow="2"
   inkscape:pageopacity="0.0"
   inkscape:pagecheckerboard="0"
   inkscape:deskcolor="#d1d1d1"
   showgrid="false"
   inkscape:zoom="1.06625"
   inkscape:cx="280.89097"
   inkscape:cy="325.43962"
   inkscape:window-width="1910"
   inkscape:window-height="1033"
   inkscape:window-x="1920"
   inkscape:window-y="0"
   inkscape:window-maximized="1"
   inkscape:current-layer="svg8" />
<g
   id="block1"
   style="fill:#d45500">
  
  <path
   d="m 0,1.356 v 16.743 h 5.249 v 7.154 3.617 2.586 h 3.61 V 28.87 h 15.423 v 2.586 h 3.606 V 18.098 h 4.923 V 1.356 Z M 31.136,2.281 23.372,16.939 H 18.589 L 26.351,2.281 c 0,0 4.785,0 4.785,0 z m -8.12,-0.036 -7.766,14.66 h -4.785 l 7.767,-14.66 c 0,0 4.784,0 4.784,0 z M 1.31,2.429 6.927,2.412 1.281,12.99 Z M 7.468,17.06 H 2.684 L 10.447,2.402 h 4.785 z m 16.814,8.192 H 8.859 v -7.154 h 15.423 c 0,0 0,7.154 0,7.154 z m 7.867,-8.441 -5.616,-0.006 5.646,-10.576 z"
   id="path1"
   style="display:inline;fill:#d45500"
   inkscape:label="path1" />
</g>
<text
   xml:space="preserve"
   style="font-size:3.93732px;fill:#000000;stroke-width:0.0410138;-inkscape-font-specification:'sans-serif, Italic';font-family:sans-serif;font-weight:normal;font-style:italic;font-stretch:normal;font-variant:normal;font-variant-ligatures:normal;font-variant-caps:normal;font-variant-numeric:normal;font-variant-east-asian:normal"
   x="2.0221448"
   y="11.135309"
   id="text287"><tspan
     sodipodi:role="line"
     id="tspan285"
     style="font-size:3.93732px;stroke-width:0.0410138;-inkscape-font-specification:'sans-serif, Italic';font-family:sans-serif;font-weight:normal;font-style:italic;font-stretch:normal;font-variant:normal;font-variant-ligatures:normal;font-variant-caps:normal;font-variant-numeric:normal;font-variant-east-asian:normal"
     x="2.0221448"
     y="11.135309">Under </tspan><tspan
     sodipodi:role="line"
     style="font-size:3.93732px;stroke-width:0.0410138;-inkscape-font-specification:'sans-serif, Italic';font-family:sans-serif;font-weight:normal;font-style:italic;font-stretch:normal;font-variant:normal;font-variant-ligatures:normal;font-variant-caps:normal;font-variant-numeric:normal;font-variant-east-asian:normal"
     x="2.0221448"
     y="16.056959"
     id="tspan289">Construction</tspan></text></svg>
